<mxfile>
    <diagram id="project-overview" name="SecretTrees.io Overview">
        <mxGraphModel>
            <root>
                <mxCell id="0"/>
                <mxCell id="1" parent="0"/>
                <!-- Core Architecture -->
                <mxCell id="core" value="SecretTrees.io" style="ellipse;whiteSpace=wrap;html=1;fontSize=16;fontStyle=1"/>
                <!-- Framer Stack -->
                <mxCell id="framer" value="Framer Stack" style="rounded=1;whiteSpace=wrap;html=1;fontSize=14"/>
                <mxCell id="core-store" value="Core Store" style="swimlane;fontStyle=0;childLayout=stackLayout;horizontal=1;startSize=30;horizontalStack=0;resizeParent=1;resizeParentMax=0;resizeLast=0;collapsible=1;marginBottom=0;fontSize=12">
                    <mxCell id="store-1" value="StakingStore (Data Management)" style="text;strokeColor=none;fillColor=none;align=left;verticalAlign=middle;spacingLeft=4;spacingRight=4;overflow=hidden;points=[[0,0.5],[1,0.5]];portConstraint=eastwest;rotatable=0;fontSize=11"/>
                    <mxCell id="store-2" value="StakingActions (Web3 Integration)" style="text;strokeColor=none;fillColor=none;align=left;verticalAlign=middle;spacingLeft=4;spacingRight=4;overflow=hidden;points=[[0,0.5],[1,0.5]];portConstraint=eastwest;rotatable=0;fontSize=11"/>
                    <mxCell id="store-3" value="withStaking HOC (Component Wrapper)" style="text;strokeColor=none;fillColor=none;align=left;verticalAlign=middle;spacingLeft=4;spacingRight=4;overflow=hidden;points=[[0,0.5],[1,0.5]];portConstraint=eastwest;rotatable=0;fontSize=11"/>
                </mxCell>
            </root>
        </mxGraphModel>
    </diagram>
</mxfile> 